<mxfile host="app.diagrams.net" modified="2022-12-12T22:14:04.810Z" agent="5.0 (Macintosh; Intel Mac OS X 10_15_7) AppleWebKit/537.36 (KHTML, like Gecko) Chrome/108.0.0.0 Safari/537.36" version="20.6.2" etag="gNrckJ7fMk9-Tkv1QDnC" type="github">
  <diagram id="8nm5g7JMp4kTllmlS38S" name="Page-1">
    <mxGraphModel dx="1234" dy="793" grid="1" gridSize="1" guides="1" tooltips="1" connect="1" arrows="1" fold="1" page="1" pageScale="1" pageWidth="1700" pageHeight="1100" math="0" shadow="0">
      <root>
        <mxCell id="0" />
        <mxCell id="1" parent="0" />
        <mxCell id="X1pH-D3nm08_cNBffR_C-1" value="UI" style="swimlane;whiteSpace=wrap;html=1;fillColor=#d5e8d4;strokeColor=#82b366;" vertex="1" parent="1">
          <mxGeometry x="94" y="62" width="200" height="499" as="geometry" />
        </mxCell>
        <mxCell id="X1pH-D3nm08_cNBffR_C-4" value="Crap" style="rounded=0;whiteSpace=wrap;html=1;fillColor=#dae8fc;strokeColor=#6c8ebf;rotation=-90;" vertex="1" parent="X1pH-D3nm08_cNBffR_C-1">
          <mxGeometry x="40" y="367" width="120" height="60" as="geometry" />
        </mxCell>
        <mxCell id="X1pH-D3nm08_cNBffR_C-5" value="Stuff" style="rounded=0;whiteSpace=wrap;html=1;fillColor=#dae8fc;strokeColor=#6c8ebf;rotation=-90;" vertex="1" parent="X1pH-D3nm08_cNBffR_C-1">
          <mxGeometry x="40" y="221" width="120" height="60" as="geometry" />
        </mxCell>
        <mxCell id="X1pH-D3nm08_cNBffR_C-6" value="Junk" style="rounded=0;whiteSpace=wrap;html=1;fillColor=#dae8fc;strokeColor=#6c8ebf;rotation=-90;" vertex="1" parent="X1pH-D3nm08_cNBffR_C-1">
          <mxGeometry x="40" y="75" width="120" height="60" as="geometry" />
        </mxCell>
        <mxCell id="X1pH-D3nm08_cNBffR_C-2" value="Action Execution" style="swimlane;whiteSpace=wrap;html=1;fillColor=#d5e8d4;strokeColor=#82b366;" vertex="1" parent="1">
          <mxGeometry x="314" y="363" width="609" height="200" as="geometry" />
        </mxCell>
        <mxCell id="X1pH-D3nm08_cNBffR_C-7" value="Start" style="rounded=0;whiteSpace=wrap;html=1;fillColor=#fff2cc;strokeColor=#d6b656;" vertex="1" parent="X1pH-D3nm08_cNBffR_C-2">
          <mxGeometry x="22" y="62" width="120" height="60" as="geometry" />
        </mxCell>
        <mxCell id="X1pH-D3nm08_cNBffR_C-8" value="Stop" style="rounded=0;whiteSpace=wrap;html=1;fillColor=#fff2cc;strokeColor=#d6b656;" vertex="1" parent="X1pH-D3nm08_cNBffR_C-2">
          <mxGeometry x="163" y="62" width="120" height="60" as="geometry" />
        </mxCell>
        <mxCell id="X1pH-D3nm08_cNBffR_C-9" value="Continue" style="rounded=0;whiteSpace=wrap;html=1;fillColor=#fff2cc;strokeColor=#d6b656;" vertex="1" parent="X1pH-D3nm08_cNBffR_C-2">
          <mxGeometry x="304" y="62" width="120" height="60" as="geometry" />
        </mxCell>
        <mxCell id="X1pH-D3nm08_cNBffR_C-3" value="Orchestra Runtime Engine" style="rounded=0;whiteSpace=wrap;html=1;fillColor=#d5e8d4;strokeColor=#82b366;" vertex="1" parent="1">
          <mxGeometry x="309" y="62" width="623" height="24" as="geometry" />
        </mxCell>
        <mxCell id="X1pH-D3nm08_cNBffR_C-10" value="Do This" style="rounded=0;whiteSpace=wrap;html=1;fillColor=#f5f5f5;fontColor=#333333;strokeColor=#666666;" vertex="1" parent="1">
          <mxGeometry x="390" y="133" width="120" height="60" as="geometry" />
        </mxCell>
        <mxCell id="X1pH-D3nm08_cNBffR_C-11" value="Do That" style="rounded=0;whiteSpace=wrap;html=1;fillColor=#f5f5f5;fontColor=#333333;strokeColor=#666666;" vertex="1" parent="1">
          <mxGeometry x="566" y="133" width="120" height="60" as="geometry" />
        </mxCell>
        <mxCell id="X1pH-D3nm08_cNBffR_C-12" value="Do Other" style="rounded=0;whiteSpace=wrap;html=1;fillColor=#f5f5f5;fontColor=#333333;strokeColor=#666666;" vertex="1" parent="1">
          <mxGeometry x="742" y="133" width="120" height="60" as="geometry" />
        </mxCell>
      </root>
    </mxGraphModel>
  </diagram>
</mxfile>
